<svg width="80" height="56" viewBox="0 0 80 56" fill="none" xmlns="http://www.w3.org/2000/svg">
<path d="M23.8345 16.6968C23.8358 16.4583 23.8063 16.2207 23.7468 15.9899C23.695 15.7839 23.6113 15.5873 23.4988 15.4074C23.4011 15.251 23.2723 15.1165 23.1205 15.0124C22.9801 14.9168 22.8143 14.8661 22.6448 14.8669C22.4395 14.8689 22.2356 14.9021 22.0402 14.9655C21.8255 15.0335 21.6178 15.1223 21.4202 15.2307C21.2154 15.3426 21.02 15.4713 20.8362 15.6153C20.6596 15.7521 20.5 15.9097 20.3608 16.0848V24.2769H17.0128V16.6968C17.0143 16.4576 16.9812 16.2195 16.9148 15.9899C16.8563 15.7836 16.7674 15.5873 16.6512 15.4074C16.551 15.2516 16.421 15.1173 16.2688 15.0124C16.1385 14.9201 15.9835 14.8694 15.8242 14.8669C15.6274 14.8698 15.4322 14.903 15.2455 14.9655C15.0326 15.0342 14.8267 15.123 14.6305 15.2307C14.4233 15.3441 14.2246 15.4726 14.0362 15.6153C13.8499 15.7554 13.6769 15.9125 13.5195 16.0848V24.2769H10.1602V13.1201H13.5205V14.0765C14.033 13.7255 14.5845 13.436 15.1638 13.2137C15.6843 13.0073 16.2378 12.898 16.7972 12.8911C17.0928 12.8925 17.3874 12.9262 17.6758 12.9917C17.968 13.0564 18.2535 13.1487 18.5285 13.2674C18.7969 13.3831 19.0503 13.5315 19.2828 13.7093C19.504 13.8764 19.7006 14.074 19.8668 14.2965C20.1312 14.083 20.4129 13.8923 20.7092 13.7264C21.017 13.5527 21.3385 13.4049 21.6705 13.2845C22.004 13.1635 22.3461 13.0679 22.6938 12.9984C23.0359 12.9298 23.3837 12.895 23.7325 12.8945C24.1962 12.8922 24.6554 12.986 25.0815 13.1701C25.4973 13.3487 25.876 13.6044 26.1978 13.9239C26.5203 14.2458 26.7782 14.6271 26.9575 15.0469C27.1449 15.4834 27.2399 15.9544 27.2365 16.4298V24.2769H23.8365L23.8345 16.6968Z" fill="#EC1C24"/>
<path d="M58.2598 15.4675V14.3462C58.6573 14.3472 59.0481 14.2431 59.3931 14.0444C59.76 13.8331 60.0858 13.5566 60.3544 13.2282C60.6539 12.8623 60.9008 12.456 61.0878 12.021C61.2942 11.549 61.4484 11.0555 61.5474 10.5496H63.4081V14.1041H66.1471V15.4662H63.4081V22.6731C63.4037 22.8803 63.4632 23.0837 63.5784 23.2555C63.681 23.4158 63.8594 23.5104 64.0488 23.505C64.1845 23.4995 64.3165 23.4582 64.4314 23.3853C64.57 23.3052 64.7014 23.2131 64.8241 23.11C64.9424 23.0113 65.0547 22.9053 65.1601 22.7928C65.2601 22.6851 65.3304 22.604 65.3718 22.5483L66.5294 23.4634C66.3467 23.7501 66.1411 24.0213 65.9144 24.2743C65.6887 24.5255 65.4296 24.7442 65.1444 24.9241C64.8349 25.1166 64.4989 25.2621 64.1471 25.3557C63.7201 25.466 63.2803 25.5184 62.8394 25.5116C62.4224 25.5209 62.0072 25.4526 61.6148 25.3104C61.287 25.1883 60.9892 24.9967 60.7414 24.7487C60.5038 24.5044 60.3236 24.2095 60.2141 23.8859C60.0932 23.5259 60.0338 23.1479 60.0384 22.768V15.4675H58.2598Z" fill="#EC1C24"/>
<path d="M5.05293 40.7318C5.05106 40.6999 5.06286 40.6687 5.08534 40.6461C5.10783 40.6234 5.13885 40.6116 5.17059 40.6135H5.93526C6.0174 40.6053 6.09468 40.6539 6.12326 40.7318L8.51026 46.1504H8.54559L10.8863 40.7318C10.915 40.6539 10.9924 40.6052 11.0746 40.6135H11.8389C11.8707 40.6116 11.9017 40.6234 11.9242 40.6461C11.9467 40.6687 11.9585 40.6999 11.9566 40.7318V48.54C11.9585 48.5719 11.9467 48.6031 11.9242 48.6257C11.9017 48.6483 11.8707 48.6602 11.8389 48.6583H11.0976C11.0658 48.6602 11.0348 48.6483 11.0123 48.6257C10.9899 48.6031 10.9781 48.5719 10.9799 48.54V42.944H10.9446L8.95726 47.3686C8.92967 47.4608 8.8411 47.5204 8.74592 47.5108H8.27526C8.17648 47.5238 8.08258 47.464 8.05192 47.3686L6.06459 42.944H6.02926V48.54C6.03112 48.5719 6.01933 48.6031 5.99684 48.6257C5.97436 48.6483 5.94333 48.6602 5.91159 48.6583H5.17059C5.13885 48.6602 5.10783 48.6483 5.08534 48.6257C5.06286 48.6031 5.05106 48.5719 5.05293 48.54V40.7318Z" fill="#231F20"/>
<path fill-rule="evenodd" clip-rule="evenodd" d="M14.3645 41.6818C14.3871 41.7044 14.4181 41.7163 14.4499 41.7143H15.2499C15.2816 41.7162 15.3126 41.7043 15.3351 41.6817C15.3575 41.659 15.3692 41.6278 15.3672 41.5959V40.7321C15.3692 40.7002 15.3575 40.669 15.3351 40.6463C15.3126 40.6237 15.2816 40.6118 15.2499 40.6137H14.4499C14.4182 40.6118 14.3871 40.6237 14.3647 40.6463C14.3422 40.6689 14.3304 40.7002 14.3322 40.7321V41.5959C14.3303 41.6279 14.342 41.6591 14.3645 41.6818ZM14.388 48.6263C14.4104 48.649 14.4414 48.6608 14.4731 48.659H15.2258C15.2575 48.6609 15.2886 48.6491 15.3111 48.6265C15.3336 48.6038 15.3454 48.5725 15.3434 48.5406V43.1103C15.3453 43.0784 15.3335 43.0472 15.311 43.0246C15.2885 43.002 15.2575 42.9903 15.2258 42.9922H14.4731C14.4414 42.9902 14.4104 43.002 14.388 43.0246C14.3655 43.0472 14.3538 43.0784 14.3558 43.1103V48.5406C14.3538 48.5725 14.3655 48.6037 14.388 48.6263Z" fill="#231F20"/>
<path d="M17.8366 48.659C17.8049 48.6609 17.7738 48.6491 17.7513 48.6265C17.7288 48.6038 17.717 48.5725 17.719 48.5406V43.1103C17.7171 43.0784 17.7289 43.0472 17.7514 43.0246C17.7739 43.002 17.8049 42.9903 17.8366 42.9922H18.589C18.6207 42.9903 18.6517 43.002 18.6742 43.0246C18.6967 43.0472 18.7085 43.0784 18.7066 43.1103V43.69H18.7203C19.0126 43.1423 19.5972 42.8182 20.2136 42.8621C20.6367 42.8576 21.0467 43.0091 21.3663 43.288C21.425 43.347 21.437 43.3943 21.3896 43.4536L20.9536 44.0331C20.9372 44.0611 20.909 44.0801 20.877 44.0847C20.845 44.0893 20.8126 44.0791 20.789 44.0569C20.5315 43.8826 20.2289 43.788 19.9186 43.7849C19.06 43.7849 18.7073 44.459 18.7073 45.4411V48.5406C18.7093 48.5725 18.6975 48.6038 18.675 48.6265C18.6525 48.6491 18.6214 48.6609 18.5896 48.659H17.8366Z" fill="#231F20"/>
<path fill-rule="evenodd" clip-rule="evenodd" d="M25.7948 48.6263C25.8173 48.6489 25.8484 48.6608 25.8802 48.6588H26.5748C26.6066 48.6608 26.6377 48.6489 26.6602 48.6263C26.6827 48.6037 26.6945 48.5724 26.6925 48.5404V44.7901C26.6925 43.3941 26.0815 42.862 24.4815 42.862C23.7994 42.8316 23.1262 43.0269 22.5648 43.4179C22.5158 43.4588 22.5056 43.5304 22.5412 43.5836L22.8588 44.1278C22.8942 44.1868 22.9645 44.1868 23.0235 44.1396C23.421 43.8565 23.901 43.7149 24.3875 43.7372C25.4342 43.7372 25.7398 44.0685 25.7398 44.8495V45.2633C25.7426 45.2828 25.7362 45.3025 25.7223 45.3165C25.7085 45.3305 25.6889 45.3371 25.6695 45.3343H24.3875C23.0105 45.3343 22.1875 45.8903 22.1875 47.0854C22.1875 48.2329 23.0105 48.7889 24.0805 48.7889C24.9392 48.7889 25.4922 48.4697 25.7508 48.0435H25.7625V48.5404C25.7605 48.5724 25.7723 48.6037 25.7948 48.6263ZM25.7386 46.1984V46.8251C25.7386 47.5233 25.1976 47.9374 24.3153 47.9374C23.5626 47.9374 23.1393 47.6296 23.1393 47.0501C23.1393 46.411 23.5633 46.1273 24.5393 46.1273H25.6683C25.6877 46.1245 25.7073 46.1312 25.7211 46.1451C25.7349 46.1591 25.7414 46.1788 25.7386 46.1984Z" fill="#231F20"/>
<path fill-rule="evenodd" clip-rule="evenodd" d="M29.0304 41.6817C29.0529 41.7043 29.0839 41.7162 29.1156 41.7143H29.9156C29.9474 41.7163 29.9785 41.7044 30.001 41.6818C30.0235 41.6591 30.0352 41.6279 30.0333 41.5959V40.7321C30.0351 40.7002 30.0233 40.6689 30.0008 40.6463C29.9784 40.6237 29.9473 40.6118 29.9156 40.6137H29.1156C29.0839 40.6118 29.0529 40.6237 29.0304 40.6463C29.008 40.669 28.9963 40.7002 28.9983 40.7321V41.5959C28.9963 41.6278 29.008 41.659 29.0304 41.6817ZM29.0541 48.6265C29.0766 48.6491 29.1077 48.6609 29.1395 48.659H29.8921C29.9238 48.6608 29.9548 48.649 29.9773 48.6263C29.9997 48.6037 30.0114 48.5725 30.0095 48.5406V43.1103C30.0114 43.0784 29.9997 43.0472 29.9773 43.0246C29.9548 43.002 29.9238 42.9902 29.8921 42.9922H29.1395C29.1077 42.9903 29.0767 43.002 29.0542 43.0246C29.0317 43.0472 29.0199 43.0784 29.0218 43.1103V48.5406C29.0198 48.5725 29.0316 48.6038 29.0541 48.6265Z" fill="#231F20"/>
<path d="M33.9369 48.6586C33.9051 48.6606 33.874 48.6488 33.8515 48.6261C33.829 48.6035 33.8172 48.5722 33.8192 48.5403V41.666C33.822 41.6465 33.8155 41.6268 33.8017 41.6128C33.7879 41.5988 33.7683 41.5922 33.7489 41.5949H31.5612C31.5295 41.5968 31.4985 41.5849 31.476 41.5623C31.4535 41.5397 31.4417 41.5085 31.4436 41.4765V40.7311C31.4417 40.6992 31.4535 40.668 31.476 40.6454C31.4985 40.6227 31.5295 40.6109 31.5612 40.6127H37.1239C37.1556 40.6109 37.1867 40.6227 37.2091 40.6454C37.2316 40.668 37.2434 40.6992 37.2416 40.7311V41.4765C37.2434 41.5085 37.2316 41.5397 37.2091 41.5623C37.1867 41.5849 37.1556 41.5968 37.1239 41.5949H34.9362C34.9168 41.5922 34.8972 41.5988 34.8834 41.6128C34.8696 41.6268 34.8631 41.6465 34.8659 41.666V48.5403C34.8679 48.5722 34.8561 48.6035 34.8336 48.6261C34.8111 48.6488 34.78 48.6606 34.7482 48.6586H33.9369Z" fill="#231F20"/>
<path d="M38.1569 48.659C38.1252 48.6609 38.0941 48.6491 38.0716 48.6265C38.0491 48.6038 38.0373 48.5725 38.0393 48.5406V43.1103C38.0374 43.0784 38.0492 43.0472 38.0717 43.0246C38.0942 43.002 38.1252 42.9902 38.1569 42.9922H38.9096C38.9413 42.9902 38.9723 43.002 38.9948 43.0246C39.0173 43.0472 39.0291 43.0784 39.0273 43.1103V43.69H39.0389C39.3314 43.1423 39.9161 42.8182 40.5326 42.8621C40.9555 42.8577 41.3654 43.0092 41.6849 43.288C41.7439 43.347 41.7556 43.3943 41.7086 43.4536L41.2753 44.0331C41.2588 44.0617 41.2302 44.0811 41.1977 44.0858C41.1652 44.0904 41.1323 44.0798 41.1086 44.0569C40.8513 43.8825 40.5488 43.788 40.2386 43.7849C39.3799 43.7849 39.0273 44.459 39.0273 45.4411V48.5406C39.0292 48.5725 39.0175 48.6038 38.995 48.6265C38.9725 48.6491 38.9414 48.6609 38.9096 48.659H38.1569Z" fill="#231F20"/>
<path fill-rule="evenodd" clip-rule="evenodd" d="M46.1153 48.6262C46.1378 48.6488 46.1688 48.6607 46.2005 48.6588H46.8955C46.9272 48.6607 46.9583 48.6488 46.9807 48.6262C47.0032 48.6036 47.015 48.5724 47.0132 48.5404V44.7901C47.0132 43.3941 46.4022 42.862 44.8021 42.862C44.1199 42.8316 43.4466 43.0269 42.8851 43.4179C42.8364 43.459 42.8263 43.5305 42.8618 43.5836L43.1791 44.1278C43.1971 44.1548 43.2265 44.1719 43.2586 44.1741C43.2908 44.1764 43.3222 44.1637 43.3438 44.1396C43.7413 43.8565 44.2213 43.7149 44.7078 43.7372C45.7548 43.7372 46.0605 44.0685 46.0605 44.8495V45.2633C46.0633 45.2828 46.0568 45.3026 46.0429 45.3166C46.029 45.3306 46.0093 45.3372 45.9898 45.3343H44.7078C43.3311 45.3343 42.5078 45.8903 42.5078 47.0854C42.5078 48.2329 43.3311 48.7889 44.4011 48.7889C45.2598 48.7889 45.8125 48.4697 46.0711 48.0435H46.0831V48.5404C46.0812 48.5723 46.0929 48.6035 46.1153 48.6262ZM46.0593 46.1984V46.8251C46.0593 47.5232 45.5189 47.9374 44.6356 47.9374C43.8829 47.9374 43.4596 47.6295 43.4596 47.0501C43.4596 46.411 43.8836 46.1273 44.8596 46.1273H45.9886C46.008 46.1246 46.0276 46.1312 46.0415 46.1451C46.0554 46.1591 46.0619 46.1788 46.0593 46.1984Z" fill="#231F20"/>
<path d="M52.765 48.6585C52.7332 48.6604 52.7022 48.6485 52.6797 48.6259C52.6572 48.6033 52.6454 48.5721 52.6473 48.5401V45.2278C52.6473 44.3167 52.236 43.7858 51.389 43.7858C51.0284 43.7759 50.6807 43.9214 50.4336 44.1858C50.1865 44.4502 50.0635 44.8083 50.0956 45.1697V48.5415C50.0976 48.5734 50.0858 48.6047 50.0633 48.6274C50.0408 48.65 50.0097 48.6618 49.978 48.6599H49.2253C49.1935 48.6618 49.1624 48.65 49.1399 48.6274C49.1174 48.6047 49.1057 48.5734 49.1076 48.5415V43.1098C49.1058 43.0779 49.1176 43.0467 49.1401 43.0242C49.1626 43.0016 49.1936 42.9898 49.2253 42.9918H49.978C50.0097 42.9898 50.0407 43.0016 50.0632 43.0242C50.0857 43.0467 50.0975 43.0779 50.0956 43.1098V43.6306H50.1073C50.4622 43.1142 51.0601 42.8224 51.683 42.8617C52.9063 42.8617 53.6353 43.7 53.6353 44.991V48.5401C53.6373 48.5721 53.6255 48.6034 53.603 48.626C53.5805 48.6487 53.5494 48.6605 53.5176 48.6585H52.765Z" fill="#231F20"/>
<path d="M55.3265 47.9371C55.3038 47.9156 55.291 47.8856 55.291 47.8543C55.291 47.8229 55.3038 47.793 55.3265 47.7715L55.8085 47.2507C55.8299 47.228 55.8597 47.2152 55.8908 47.2152C55.9219 47.2152 55.9517 47.228 55.9731 47.2507C56.4602 47.6652 57.0759 47.8954 57.7138 47.9016C58.5368 47.9016 58.9471 47.5464 58.9471 47.0378C58.9471 46.5884 58.7355 46.3399 57.8535 46.2454L57.2535 46.186C56.1481 46.0676 55.5718 45.5117 55.5718 44.5892C55.5718 43.5124 56.3361 42.8619 57.6648 42.8619C58.3807 42.8518 59.0812 43.0713 59.6648 43.4886C59.6908 43.5067 59.7081 43.5348 59.7126 43.5663C59.7171 43.5977 59.7083 43.6296 59.6885 43.6543L59.2885 44.1633C59.2702 44.189 59.2422 44.206 59.2111 44.2105C59.18 44.2149 59.1485 44.2064 59.1238 44.1868C58.6691 43.8973 58.1447 43.7378 57.6068 43.7254C56.9015 43.7254 56.5368 44.0449 56.5368 44.506C56.5368 44.9557 56.8071 45.1924 57.6421 45.2753L58.2301 45.3343C59.3708 45.4409 59.9235 46.0204 59.9235 46.9315C59.9235 48.0434 59.1235 48.7888 57.6541 48.7888C56.801 48.7998 55.9732 48.4969 55.3265 47.9371Z" fill="#231F20"/>
<path d="M63.0422 48.7176C62.0545 48.7176 61.6662 48.2445 61.6662 47.2271V40.7321C61.6643 40.7002 61.6761 40.6689 61.6986 40.6463C61.7211 40.6237 61.7521 40.6118 61.7839 40.6137H62.5365C62.5683 40.6118 62.5993 40.6237 62.6218 40.6463C62.6443 40.6689 62.6561 40.7002 62.6542 40.7321V47.1677C62.6542 47.6412 62.8305 47.7948 63.2185 47.7948H63.4422C63.4739 47.793 63.5048 47.8049 63.5272 47.8275C63.5496 47.8501 63.5614 47.8813 63.5595 47.9132V48.5993C63.5615 48.6312 63.5498 48.6624 63.5273 48.685C63.5049 48.7076 63.4739 48.7195 63.4422 48.7176H63.0422Z" fill="#231F20"/>
<path fill-rule="evenodd" clip-rule="evenodd" d="M68.4842 48.6263C68.5068 48.6489 68.5378 48.6608 68.5696 48.6588H69.2646C69.2963 48.6607 69.3273 48.6488 69.3498 48.6262C69.3722 48.6035 69.3839 48.5723 69.3819 48.5404V44.7901C69.3819 43.3941 68.7709 42.862 67.171 42.862C66.4888 42.8316 65.8156 43.0269 65.2543 43.4179C65.2054 43.4589 65.1953 43.5305 65.231 43.5836L65.5483 44.1278C65.5663 44.1548 65.5956 44.1718 65.6278 44.1741C65.6599 44.1764 65.6914 44.1637 65.713 44.1396C66.1105 43.8565 66.5904 43.7149 67.077 43.7372C68.1236 43.7372 68.4293 44.0685 68.4293 44.8495V45.2633C68.4321 45.2828 68.4256 45.3025 68.4118 45.3165C68.3979 45.3305 68.3784 45.3371 68.359 45.3343H67.077C65.7 45.3343 64.877 45.8903 64.877 47.0854C64.877 48.2329 65.7 48.7889 66.7703 48.7889C67.6286 48.7889 68.1816 48.4697 68.4403 48.0435H68.452V48.5404C68.45 48.5724 68.4617 48.6037 68.4842 48.6263ZM68.4281 46.1984V46.8251C68.4281 47.5233 67.8874 47.9374 67.0047 47.9374C66.2521 47.9374 65.8287 47.6296 65.8287 47.0501C65.8287 46.411 66.2527 46.1273 67.2287 46.1273H68.3577C68.3772 46.1245 68.3967 46.1312 68.4106 46.1451C68.4244 46.1591 68.4309 46.1788 68.4281 46.1984Z" fill="#231F20"/>
<path d="M73.1095 48.7174C72.0158 48.7174 71.5921 48.2204 71.5921 47.1078V43.8662C71.595 43.8467 71.5885 43.827 71.5746 43.8131C71.5608 43.7991 71.5412 43.7926 71.5218 43.7954H71.0515C71.0197 43.7974 70.9886 43.7856 70.9661 43.763C70.9436 43.7403 70.9318 43.709 70.9338 43.6771V43.109C70.9319 43.0771 70.9437 43.0459 70.9662 43.0234C70.9887 43.0008 71.0198 42.989 71.0515 42.991H71.5215C71.5409 42.9937 71.5605 42.9871 71.5743 42.9731C71.5881 42.9591 71.5946 42.9394 71.5918 42.9199V41.3234C71.5899 41.2915 71.6017 41.2603 71.6242 41.2376C71.6467 41.215 71.6777 41.2032 71.7095 41.205H72.4621C72.4939 41.2032 72.5249 41.215 72.5474 41.2376C72.5699 41.2603 72.5817 41.2915 72.5798 41.3234V42.9206C72.577 42.9402 72.5835 42.9599 72.5974 42.9739C72.6113 42.9879 72.631 42.9945 72.6505 42.9917H73.5441C73.5758 42.9897 73.6069 43.0015 73.6294 43.024C73.6519 43.0466 73.6637 43.0778 73.6618 43.1097V43.6777C73.6638 43.7097 73.652 43.741 73.6295 43.7636C73.607 43.7863 73.5759 43.7981 73.5441 43.7961H72.6505C72.6311 43.7933 72.6115 43.7998 72.5976 43.8137C72.5837 43.8276 72.5771 43.8473 72.5798 43.8669V47.0743C72.5798 47.6423 72.7915 47.7959 73.2971 47.7959H73.5441C73.5759 47.794 73.6069 47.8059 73.6294 47.8285C73.6519 47.8511 73.6637 47.8824 73.6618 47.9143V48.6004C73.6638 48.6323 73.652 48.6636 73.6295 48.6863C73.607 48.7089 73.5759 48.7207 73.5441 48.7187L73.1095 48.7174Z" fill="#231F20"/>
<path fill-rule="evenodd" clip-rule="evenodd" d="M75.0604 45.8193C75.045 46.3036 75.1087 46.7872 75.2487 47.2508C75.554 48.233 76.366 48.789 77.5057 48.789C78.3484 48.8236 79.1599 48.4657 79.7057 47.8189C79.7294 47.797 79.7419 47.7655 79.7397 47.7332C79.7374 47.7009 79.7206 47.6715 79.694 47.6532L79.2117 47.2156C79.153 47.168 79.094 47.18 79.0354 47.2391C78.6711 47.6557 78.1402 47.8859 77.589 47.8661C76.9459 47.91 76.357 47.5037 76.166 46.8843C76.0977 46.6623 76.0659 46.4305 76.072 46.1982C76.0692 46.1787 76.0757 46.159 76.0895 46.145C76.1034 46.131 76.123 46.1244 76.1424 46.1271H79.7057C79.7391 46.1315 79.7728 46.1208 79.7977 46.0981C79.8227 46.0753 79.8364 46.0426 79.8354 46.0087C79.8661 45.4624 79.8064 44.9147 79.6587 44.3881C79.3061 43.4687 78.4275 42.8623 77.4479 42.8623C76.4683 42.8623 75.5896 43.4687 75.237 44.3881C75.1002 44.8521 75.0405 45.3357 75.0604 45.8193ZM78.8067 45.3169C78.7929 45.3309 78.7733 45.3375 78.7539 45.3348H76.1429C76.1235 45.3375 76.1039 45.3309 76.0901 45.3169C76.0762 45.3029 76.0697 45.2832 76.0725 45.2637C76.0653 45.0477 76.0931 44.8319 76.1549 44.6249C76.3635 44.0895 76.8768 43.7373 77.4484 43.7373C78.02 43.7373 78.5333 44.0895 78.7419 44.6249C78.8036 44.8319 78.8314 45.0477 78.8242 45.2637C78.827 45.2832 78.8205 45.3029 78.8067 45.3169Z" fill="#231F20"/>
<path fill-rule="evenodd" clip-rule="evenodd" d="M8.76731 53.2489C8.87331 52.5836 8.91564 52.1685 8.93664 51.9287L8.59698 51.9082C8.57542 52.3199 8.53314 52.7302 8.47031 53.1376C7.97678 52.9542 7.46111 52.8379 6.93698 52.7918C7.02698 52.3127 7.13264 51.7272 7.22264 51.0193H5.06931V51.3281L6.86298 51.312C6.82202 51.802 6.75134 52.2891 6.65131 52.7704C6.29251 52.7739 5.93673 52.8369 5.59831 52.9568C5.06576 53.172 4.71333 53.6874 4.70397 54.2646C4.68449 54.5021 4.76722 54.7367 4.93118 54.9087C5.09514 55.0808 5.32457 55.1738 5.56131 55.1643C6.36531 55.1643 6.54564 54.4728 6.88931 53.0517C7.41548 53.0965 7.93142 53.224 8.41831 53.4296C8.14388 54.9328 7.26864 55.1744 6.88107 55.2813L6.87864 55.282L7.06398 55.5425C7.95898 55.2668 8.60556 54.4825 8.70931 53.5467C8.93389 53.635 9.15001 53.7438 9.35498 53.8716L9.46564 53.5628C9.23948 53.4438 9.00626 53.339 8.76731 53.2489ZM4.98427 54.2543C4.99026 53.8041 5.25397 53.3979 5.66127 53.2114C5.95688 53.0843 6.27668 53.0243 6.59794 53.0357C6.23294 54.8397 5.87827 54.8984 5.52394 54.8984C5.0636 54.8984 4.98427 54.4555 4.98427 54.2543Z" fill="#231F20"/>
<path fill-rule="evenodd" clip-rule="evenodd" d="M11.4359 51.2089C12.1556 51.2076 12.8699 51.3324 13.5469 51.5777L13.6473 51.2411C12.95 51.0283 12.2276 50.9101 11.4993 50.8896L11.4359 51.2089ZM11.1045 51.6932C11.1055 51.6903 11.1064 51.6873 11.1074 51.6844L10.7958 51.5939C10.7344 51.7952 10.6918 52.0019 10.6688 52.2112C10.6534 52.3543 10.6451 52.8031 10.6378 53.2054C10.6325 53.4913 10.6277 53.7537 10.6211 53.8664L10.9368 53.8771C11.2651 53.2279 12.3654 52.9298 13.0268 52.9298C13.2966 52.8974 13.5673 52.9834 13.7698 53.1657C13.9724 53.348 14.0872 53.6091 14.0851 53.8825C14.0851 55.0588 12.7834 55.144 11.7254 55.144C11.3859 55.1468 11.0465 55.1274 10.7094 55.0856L10.7358 55.3941C11.0785 55.4368 11.4237 55.4564 11.7691 55.4528C12.5678 55.4528 14.4251 55.4528 14.4251 53.8664C14.4251 53.0059 13.7318 52.6371 13.0651 52.6371C12.6645 52.6406 12.2674 52.7126 11.8908 52.85C11.5342 52.9633 11.2059 53.1519 10.9278 53.4033C10.9278 52.227 10.9952 52.0233 11.1045 51.6932Z" fill="#231F20"/>
<path fill-rule="evenodd" clip-rule="evenodd" d="M15.7582 52.653C15.7545 52.1493 15.7862 51.6459 15.8532 51.1467L15.5095 51.1135C15.5083 51.1286 15.5071 51.1441 15.5058 51.1601C15.4787 51.4996 15.4355 52.0404 15.4355 52.6249C15.4355 54.0832 15.6305 55.3608 16.5305 55.3608C17.2872 55.3608 17.7685 54.1221 17.8799 53.8183L17.6152 53.6751C17.5355 53.8931 17.1179 55.0054 16.5622 55.0054C15.8162 55.0054 15.7582 53.6057 15.7582 52.653ZM19.5774 54.7594C19.5758 54.7817 19.5743 54.8034 19.5729 54.8244L19.9326 54.8137C19.9331 54.798 19.9336 54.7826 19.9341 54.7674C19.9388 54.6229 19.9429 54.4979 19.9429 54.3292C19.9429 52.6793 19.4986 51.8491 18.7896 51.3011L18.5622 51.5137C18.8283 51.7173 19.0468 51.9772 19.2022 52.2749C19.4869 52.8795 19.623 53.544 19.5992 54.2125C19.5992 54.4468 19.5873 54.6176 19.5774 54.7594Z" fill="#231F20"/>
<path fill-rule="evenodd" clip-rule="evenodd" d="M21.7972 52.2109H21.9932C22.1298 51.9825 22.2416 51.7398 22.3265 51.4873L22.5802 51.5936C22.4927 51.8053 22.3925 52.0114 22.2802 52.2109H22.7542V52.4399H21.9032C22.1628 52.7854 22.4753 53.0873 22.8289 53.3343L22.6385 53.5415C22.3161 53.2797 22.0359 52.9692 21.8079 52.621H21.7972V53.5734H22.5909V55.4364H21.0209V55.644H20.7615V53.5734H21.5395V52.675H21.5275C21.2621 53.0691 20.9393 53.4208 20.5699 53.7182L20.4219 53.4681C20.8168 53.1837 21.1633 52.8369 21.4479 52.441H20.4745V52.2119H21.0142C20.9368 52.0066 20.8375 51.8104 20.7179 51.6268L20.9719 51.5574C21.1006 51.7635 21.2071 51.983 21.2895 52.2119H21.5382V51.3605C21.225 51.4113 20.9084 51.438 20.5912 51.4403L20.5119 51.1902C21.2243 51.2223 21.9347 51.0932 22.5909 50.8123L22.6809 51.0517C22.4046 51.1941 22.1054 51.2861 21.7972 51.3233V52.2109ZM21.5382 53.8024H21.0208V54.3932H21.5395L21.5382 53.8024ZM21.0208 54.6076H21.5382L21.5395 55.2092H21.0208V54.6076ZM22.3312 53.8024H21.7979V54.3932H22.3312V53.8024ZM21.7979 54.6076H22.3312V55.2092H21.7979V54.6076ZM23.9609 51.0142V55.3094C23.9609 55.5488 23.8609 55.6447 23.5692 55.6447H23.1025L23.0602 55.3574L23.5312 55.3678C23.5747 55.3755 23.6192 55.3622 23.6514 55.3319C23.6837 55.3015 23.6998 55.2576 23.6949 55.2135V53.6757H23.6872C23.4271 53.9975 23.1403 54.2966 22.8299 54.5697L22.6925 54.3299C23.056 54.0151 23.3922 53.6698 23.6975 53.2978V51.2804H22.8309V51.0142H23.9609ZM22.8278 51.8343C22.9746 52.16 23.0971 52.4963 23.1945 52.8403L23.4681 52.7283C23.3645 52.3862 23.2372 52.0518 23.0871 51.7276L22.8278 51.8343ZM25.2103 51.0142V55.3138C25.2103 55.4522 25.205 55.6437 24.861 55.6437H24.3743L24.321 55.3573L24.7876 55.3677C24.8304 55.3745 24.8739 55.3606 24.9051 55.3303C24.9363 55.3 24.9515 55.2568 24.9463 55.2135V53.6472H24.9356C24.7195 53.9508 24.4826 54.2389 24.2266 54.5093L24.0576 54.3017C24.3797 53.9734 24.6767 53.6212 24.9463 53.2481V51.2787H24.1093V51.0125L25.2103 51.0142ZM24.1089 51.8282C24.2688 52.1407 24.3913 52.4712 24.4739 52.8128L24.7385 52.7018C24.6352 52.3689 24.5097 52.0435 24.3629 51.7276L24.1089 51.8282Z" fill="#231F20"/>
<path fill-rule="evenodd" clip-rule="evenodd" d="M30.6495 50.9702V53.0774H29.7342C29.8558 54.3385 30.2792 54.9187 30.9458 55.419L30.7395 55.6903C29.9452 55.0551 29.4723 54.0978 29.4488 53.0774H28.6125C28.6075 54.4187 28.3375 55.0783 27.9248 55.6903L27.6392 55.5256C28.1788 54.7644 28.3165 54.1363 28.3165 52.9976V50.9695L30.6495 50.9702ZM27.708 51.2262V50.9707H26.0994V51.2262H27.708ZM27.8932 51.9659V51.7H25.9355V51.9659H27.8932ZM27.708 52.4128V52.6733H26.0994V52.4128H27.708ZM27.708 53.4181V53.1521H26.0994V53.4181H27.708ZM27.708 53.8765V55.419H26.38V55.6695H26.0994V53.8755L27.708 53.8765ZM26.3799 54.1262H27.4219V55.159H26.3799V54.1262ZM28.6128 51.2362H30.3588V52.8062H28.6128V51.2362Z" fill="#231F20"/>
<path fill-rule="evenodd" clip-rule="evenodd" d="M45.8634 1.57752V17.5486H36.9154C36.3582 7.50242 27.9544 -0.272997 17.9563 0.00734787C7.95833 0.287692 -0.00195312 8.52196 -0.00195312 18.5838C-0.00195312 28.6455 7.95833 36.8798 17.9563 37.1602C27.9544 37.4405 36.3582 29.6651 36.9154 19.6189H45.8634V35.59H79.6734V1.57752H45.8634ZM18.4718 35.0971C9.40608 35.0971 2.05683 27.7039 2.05683 18.5838C2.05683 9.46379 9.40608 2.07053 18.4718 2.07053C27.5376 2.07053 34.8868 9.46379 34.8868 18.5838C34.8767 27.6997 27.5334 35.087 18.4718 35.0971ZM47.9204 33.5212H77.6151L77.6144 3.64974H47.9204V33.5212Z" fill="#EC1C24"/>
</svg>
